<?xml version="1.0" encoding="utf-8"?>
<!-- Generator: Adobe Illustrator 25.3.1, SVG Export Plug-In . SVG Version: 6.00 Build 0)  -->
<svg version="1.1" id="Layer_1" xmlns="http://www.w3.org/2000/svg" xmlns:xlink="http://www.w3.org/1999/xlink" x="0px" y="0px"
	 viewBox="0 0 557 489" style="enable-background:new 0 0 557 489;" xml:space="preserve">
<style type="text/css">
	.st0{fill:#FFFFFF;}
	.st1{enable-background:new    ;}
</style>
<path class="st0" d="M491.6,186.8c0.2,0.3,0,1-0.3,1.3s-1,0.5-1.3,0.3c-1-0.6-2-1.3-2.8-2.1c-2.6-2.5-5.2-4.9-7.6-7.5
	c-2.2-2.4-4.8-3.4-8.1-3.4c-4.9,0.1-9.8,0.1-14.6,0.1c-2,0-4,0-5.9,0c-1,0-2,0-3.1,0c-0.3,0-0.5,0-0.8,0c-1.1,0-2.3,0-3.5,0l0,0
	c-5,0-10,0-15,0.1v0.1c-11.1,0-22.2,0.1-33.3,0.1c-1.7,0-3.4,0-5.1-0.1c-2.8-0.2-3.4-0.9-3.6-3.8c0-0.5,0-1,0-1.5
	c-0.2-19.6-0.6-39.7-0.7-59.4c-0.1-17.9-0.1-35.9-0.1-53.8c0-6.4,0-6.5,6.5-6.5c18.3,0,70.1-0.3,77.8-0.3c1.7,0,3.4,0,5.1,0.1
	c1.7,0.2,2.4,1,2.6,2.6c0.2,1.5,0.1,3,0.2,4.6c0.1,28.6,0.2,57.7,0.3,86.3c0,8.6,0.4,17.2,0.5,25.9c0,2.4,0.8,4.2,2.5,5.9
	c2.8,2.7,5.6,5.4,8.3,8.2C490.3,184.8,491,185.8,491.6,186.8z M461.6,155.1c0.2-1.9,0.2-3.7,0.2-5.6c-0.2-25.2-0.4-50.9-0.6-76.1
	c-0.1-6.5-0.2-6.7-7-6.7c-1.9,0-3.8,0-5.7,0l0,0c-0.8,0-1.5,0-2.3,0c-1.7,0-3.3,0-5,0l0,0c-1.9,0-3.7,0-5.6,0
	c-2.9,0-19.7,0.6-25.2,0.6c-0.8,0-1.7,0.1-2.5,0.2c-0.9,0.1-1.3,1.3-0.7,2c2.1,2.2,4.2,4.4,6.3,6.5c1.1,1.1,2.1,2.2,3.1,3.3
	c0.5,0.6,0.2,1.3-0.3,1.8c-0.5,0.6-1.2,0.7-1.8,0.2c-0.5-0.4-1-0.9-1.5-1.3c-2.1-2-4.1-4.1-6.2-6.1c-0.9-0.9-1.8-2.5-3.2-2
	c-1.8,0.6-1.1,2.6-1.1,4c0,25.4,0.1,51.2,0.2,76.6c0,5.9,0.4,6.2,6.5,6.2c13,0,40.5-0.2,40.5-0.2l0,0c0.2,0,0.3,0,0.5,0
	c1.5,0,2.9,0,4.3,0c1.2,0,2.4,0,3.5-0.1C460.5,158.4,461.4,157.6,461.6,155.1z"/>
<path class="st0" d="M362.8,186.8c0.2,0.3,0,1-0.3,1.3s-1,0.5-1.3,0.3c-1-0.6-2-1.3-2.8-2.1c-2.6-2.5-5.2-4.9-7.6-7.5
	c-2.2-2.4-4.8-3.4-8.1-3.4c-4.9,0.1-9.8,0.1-14.6,0.1c-2,0-4,0-5.9,0c-1,0-2,0-3.1,0c-0.3,0-0.5,0-0.8,0c-1.2,0-2.3,0-3.5,0l0,0
	c-5,0-10,0-15,0.1v0.1c-11.1,0-22.2,0.1-33.3,0.1c-1.7,0-3.4,0-5.1-0.1c-2.8-0.2-3.4-0.9-3.6-3.8c0-0.5,0-1,0-1.5
	c-0.2-19.6-0.5-39.7-0.7-59.4C257,93.1,257,75.1,257,57.2c0-6.4,0-6.5,6.5-6.5c18.3,0,70.1-0.3,77.8-0.3c1.7,0,3.4,0,5.1,0.1
	c1.7,0.2,2.4,1,2.6,2.6c0.1,1.5,0.1,3,0.1,4.6c0.1,28.6,0.2,57.7,0.3,86.3c0,8.6,0.4,17.2,0.6,25.9c0,2.4,0.8,4.2,2.5,5.9
	c2.8,2.7,5.6,5.4,8.3,8.2C361.5,184.8,362.2,185.8,362.8,186.8z M332.9,155.1c0.2-1.9,0.2-3.7,0.2-5.6c-0.2-25.2-0.4-50.9-0.6-76.1
	c-0.1-6.5-0.2-6.7-7-6.7c-1.9,0-3.8,0-5.7,0l0,0c-0.8,0-1.5,0-2.3,0c-1.7,0-3.3,0-5,0l0,0c-1.9,0-3.7,0-5.6,0
	c-2.9,0-19.6,0.6-25.2,0.6c-0.8,0-1.7,0.1-2.5,0.2c-0.9,0.1-1.3,1.3-0.7,2c2.1,2.2,4.2,4.4,6.4,6.5c1.1,1.1,2.1,2.2,3.1,3.3
	c0.5,0.6,0.2,1.3-0.3,1.8c-0.5,0.6-1.2,0.7-1.8,0.2c-0.5-0.4-1-0.9-1.5-1.3c-2-2-4.1-4.1-6.2-6.1c-0.9-0.9-1.8-2.5-3.2-2
	c-1.8,0.6-1.1,2.6-1.1,4c0,25.4,0.1,51.2,0.2,76.6c0,5.9,0.4,6.2,6.5,6.2c13,0,40.5-0.2,40.5-0.2l0,0c0.2,0,0.3,0,0.5,0
	c1.5,0,2.9,0,4.3,0c1.2,0,2.4,0,3.5-0.1C331.8,158.4,332.6,157.6,332.9,155.1z"/>
<path class="st0" d="M234.1,186.8c0.2,0.3,0,1-0.3,1.3s-1,0.5-1.3,0.3c-1-0.6-2-1.3-2.8-2.1c-2.6-2.5-5.1-4.9-7.5-7.5
	c-2.2-2.4-4.8-3.4-8.1-3.4c-4.9,0.1-9.8,0.1-14.6,0.1c-2,0-3.9,0-5.9,0c-1,0-2.1,0-3.1,0c-0.2,0-0.5,0-0.8,0c-1.2,0-2.3,0-3.5,0l0,0
	c-5,0-10,0-15.1,0.1v0.1c-11.1,0-22.2,0.1-33.3,0.1c-1.7,0-3.4,0-5.1-0.1c-2.8-0.2-3.4-0.9-3.6-3.8c0-0.5,0-1,0-1.5
	c-0.2-19.6-0.6-39.7-0.7-59.4c-0.1-17.9-0.1-35.9-0.1-53.8c0-6.4,0-6.5,6.5-6.5c18.3,0,70.1-0.3,77.8-0.3c1.7,0,3.4,0,5.1,0.1
	c1.7,0.2,2.4,1,2.6,2.6c0.1,1.5,0.1,3,0.1,4.6c0.1,28.6,0.2,57.7,0.3,86.3c0,8.6,0.4,17.2,0.6,25.9c0,2.4,0.8,4.2,2.5,5.9
	c2.8,2.7,5.6,5.4,8.3,8.2C232.7,184.8,233.5,185.8,234.1,186.8z M204.1,155.1c0.2-1.9,0.2-3.7,0.1-5.6c-0.2-25.2-0.4-50.9-0.6-76.1
	c-0.1-6.5-0.2-6.7-7-6.7c-1.9,0-3.8,0-5.7,0l0,0c-0.8,0-1.5,0-2.3,0c-1.7,0-3.3,0-5,0l0,0c-1.9,0-3.7,0-5.6,0
	c-2.8,0-19.6,0.6-25.2,0.6c-0.8,0-1.7,0.1-2.5,0.2c-0.9,0.1-1.3,1.3-0.7,2c2.1,2.2,4.2,4.4,6.4,6.5c1,1.1,2.1,2.2,3.1,3.3
	c0.5,0.6,0.2,1.3-0.3,1.8c-0.5,0.6-1.2,0.7-1.8,0.2c-0.6-0.4-1-0.9-1.5-1.3c-2-2-4.1-4.1-6.1-6.1c-0.9-0.9-1.8-2.5-3.2-2
	c-1.8,0.6-1.1,2.6-1.1,4c0,25.4,0.1,51.2,0.2,76.6c0,5.9,0.4,6.2,6.5,6.2c13,0,40.5-0.2,40.5-0.2l0,0c0.2,0,0.3,0,0.5,0
	c1.4,0,2.9,0,4.3,0c1.2,0,2.4,0,3.5-0.1C203,158.4,203.9,157.6,204.1,155.1z"/>
<path class="st0" d="M105.8,188.2c0.1,1.3-0.5,1.9-1.8,1.8c-1-0.1-1.7-0.7-2.3-1.4c-3.4-3.4-6.9-6.8-10.2-10.2c-1.3-1.4-2.8-2-4.7-2
	c-2.5,0.1-4.9,0-7.4,0c-4.9,0-4.3,0-4.3-4.5V70.7c0-4.1,0-4.1-4.1-4.1c-3.7,0-7.4,0-11.2,0c-2.3,0-2.6-0.3-2.7-2.7
	c-0.2-3.8-0.4-7.6-0.3-11.4c0.1-2.4,0.3-2.7,2.6-2.7c10.1,0,20.1,0,30.2,0.1c2.2,0,2.5,0.3,2.5,2.5c0,5.3,0,10.7,0,16
	c0,10.8,0.3,80.2,0.3,103.2c0,1.8,0.5,3,1.8,4.2c3.4,3.2,6.6,6.5,9.9,9.9C104.9,186.4,105.7,187,105.8,188.2z"/>
<g>
	<path class="st0" d="M492.4,265.7c0.9,1.1,1.1,2.3,0.4,2.9c-0.6,0.6-2.1,0.5-3-0.4c-2.1-2-4.1-4.1-6.1-6.1
		c-1.4-1.4-2.8-2.8-4.1-4.2c-0.9-0.9-1.9-1.3-3.1-1.3c-3.1,0-6.2,0-9.4,0c-2.2,0-2.4-0.2-2.4-2.2c0-2.1,0-4.1,0-6.2h-20.2
		c0,0-0.2,0-0.3,0c-1.1,0.2-1.6,1.3-0.9,2.1c1.5,1.6,3,3.2,4.5,4.8c1.3,1.4,2.6,2.7,3.8,4.1c0.5,0.6,0.2,1.7-0.4,2.1
		c-0.7,0.4-1.2,0.1-1.7-0.3c-1.6-1.5-3.1-3.1-4.7-4.6c-1.1-1.1-2.2-2.2-3.4-3.3c-1.3-1.1-2.4-0.8-2.7,0.9c-0.1,0.9-0.2,1.9-0.2,2.8
		c0,6.6,0,13.4-0.1,20c0,0.3,0,0.6,0,0.9c0.1,4.8,0.6,5.4,5.5,5.4c10,0.1,20.1,0,30.1,0c1.4,0,2.8,0,4.2,0.2c1.2,0.1,2,1,2.1,2.2
		c0.1,1.6,0.2,3.1,0.2,4.7c0,16.5,0,32.9,0,49.4c0,0.9,0.1,1.9,0,2.8c-0.3,2.9,0.7,5.1,2.9,7.1c2.4,2.2,4.7,4.6,7,7
		c0.8,0.8,1.4,1.7,2,2.6c0.2,0.3,0,0.9-0.2,1.3s-0.8,0.6-1.2,0.3c-0.8-0.5-1.6-1-2.2-1.7c-2.5-2.4-5-4.8-7.3-7.3
		c-2-2.1-4.2-2.9-7.1-2.9c-14.7,0.1-29.5,0-44.2,0c-1.4,0-2.8,0-4.2-0.1c-1.5-0.1-3-0.9-3-2.4c0,0-0.3-3-0.3-9c0-1.8,0-3.6,0-5.2
		s0-3,0-4c0-0.8,0-1.5,0-2.2c0-2.1,0.2-2.2,2.3-2.2c1.9,0,3.8,0,5.6,0c2,0,3.9,0,5.9,0c1.8,0,2,0.3,2.1,2.1c0,0.7,0.1,7.6,0.1,7.6
		c6.4,0,12.8,0,19.2,0c1.4,0,2.8,0,4.2-0.1c2-0.2,2.7-1,2.9-3c0-0.2,0-0.3,0-0.5c0-9.1,0-18.2-0.1-27.3c0-0.6-0.1-1.2-0.3-1.9
		c-0.2-1-0.9-1.7-1.9-1.8c-1.5-0.2-3.1-0.3-4.7-0.3c-9.2,0-18.5,0-27.7,0c-1.4,0-2.8,0-4.2-0.2c-1.5-0.2-2.3-1-2.4-2.4
		c-0.2-1.4-0.2-2.8-0.2-4.2c0-8.8,0-44.4,0-53.4c0-5.4,0.2-5.6,5.5-5.6c15.2,0,30.4,0,45.6,0c5.9,0,5.9,0,6,6c0,0.8,0,1.6,0,2.3
		c0,1.4,0,2.5,0,3.3l0,0c0,2.5,0.1,5,0,7.4c0,1.8,0.5,3.1,1.8,4.3c3,2.9,5.9,5.8,8.8,8.8C491.6,265,492,265.3,492.4,265.7z"/>
	<path d="M498,310.2c-0.4,16,0.9,31.9,0.6,47.9c0,1.9,0,3.8-0.2,5.6c-0.2,2-0.9,2.7-3,3c-1.1,0.1-2.2,0.1-3.3,0.1
		c-18.6,0.1-37.3,0-55.9,0.2c-3.6,0-6.3-1-8.6-3.7c-2.3-2.6-4.8-5-7.3-7.4c-1.7-1.6-2.6-3.4-2.6-5.8c0-4.3,0-8.6,0-12.9l0,0
		c0-5.3,0-10.6,0-15.9c0-2.2,0.3-2.6,2.6-2.6c4.7,0,9.4,0,14.1,0c2.2,0,4.4,0,6.6,0c1.3,0,2.4,0.4,3.4,1.4c2.5,2.6,5.1,5.1,7.7,7.7
		c0.8,0.1,1.6,0.1,2.4,0.2c1.1,0,2.2,0,3.3-0.1c1-0.1,1.7-0.8,1.9-1.9c0.1-0.6,0.2-1.2,0.2-1.9c0-8.2,0.6-7.9-7.5-7.8
		c-6,0-11.9-0.1-17.9,0c-2.5,0-4.5-0.7-6.3-2.5c-2.4-2.5-4.8-5-7.3-7.3c-2.2-2-3.2-4.4-3.1-7.5c0.1-11,0-54.4,0-65.1
		c0-6.5,0.1-6.6,6.5-6.6c18.6,0,37.3,0.1,55.9,0c3.4,0,6,0.8,8.3,3.4c2.4,2.7,5,5.2,7.6,7.7c1.3,1.3,1.9,2.8,1.9,4.6
		c0,2.5,0,25.1,0,28.5c0,2.2-0.3,2.4-2.5,2.4c-7,0-13.9,0-20.9,0c-1.3,0-2.2-0.4-3.1-1.3c-2.1-2.2-4.3-4.3-6.4-6.4c-1,0-2,0-3,0
		c-5.4,0-5.7,0.3-5.6,5.5c0,5.3,0.3,5.9,5.5,5.9c6.1,0,12.2,0.1,18.3-0.1c3.2-0.1,5.8,0.8,7.9,3.2c2.3,2.6,4.8,4.9,7.3,7.3
		c1.7,1.6,2.5,3.5,2.5,5.8c-0.1,5.2,0,10.3,0,15.5C498,309.6,498,309.9,498,310.2z M492.8,268.7c0.7-0.6,0.5-1.9-0.4-2.9
		c-0.4-0.4-0.8-0.8-1.2-1.2c-2.9-2.9-5.8-5.9-8.8-8.8c-1.3-1.2-1.9-2.6-1.8-4.3c0.1-2.5,0-5,0-7.4l0,0c0-0.8,0-1.9,0-3.3
		c0-0.8,0-1.6,0-2.3c-0.1-6-0.1-6-6-6c-15.2,0-30.4,0-45.6,0c-5.3,0-5.5,0.2-5.5,5.6c0,8.9-0.1,44.6,0,53.4c0,1.4,0,2.8,0.2,4.2
		c0.2,1.5,1,2.3,2.4,2.4c1.4,0.2,2.8,0.2,4.2,0.2c9.2,0,18.5,0,27.7,0c1.6,0,3.1,0.1,4.7,0.3c1,0.1,1.7,0.8,1.9,1.8
		c0.2,0.6,0.3,1.2,0.3,1.9c0,9.1,0.1,18.2,0.1,27.3c0,0.2,0,0.3,0,0.5c-0.3,2.1-0.9,2.8-2.9,3c-1.4,0.1-2.8,0.1-4.2,0.1
		c-6.4,0-12.8,0-19.2,0c0,0,0-6.9-0.1-7.6c0-1.8-0.3-2-2.1-2.1c-2,0-3.9,0-5.9,0c-1.9,0-3.8,0-5.6,0c-2.1,0-2.3,0.2-2.3,2.2
		c0,0.7,0,1.5,0,2.2c0,1.1,0,2.5,0,4c0,1.6,0,3.4,0,5.2c0,6,0.3,9,0.3,9c0,1.5,1.5,2.3,3,2.4c1.4,0.1,2.8,0.1,4.2,0.1
		c14.7,0,29.5,0.1,44.2,0c2.9,0,5.1,0.8,7.1,2.9c2.3,2.5,4.8,4.9,7.3,7.3c0.7,0.6,1.4,1.2,2.2,1.7c0.4,0.3,1,0.1,1.2-0.3
		s0.4-1,0.2-1.3c-0.6-0.9-1.2-1.8-2-2.6c-2.3-2.4-4.5-4.8-7-7c-2.2-2-3.1-4.2-2.9-7.1c0.1-0.9,0-1.9,0-2.8c0-16.4,0-32.9,0-49.4
		c0-1.6-0.1-3.1-0.2-4.7c-0.1-1.2-0.8-2-2.1-2.2c-1.4-0.1-2.8-0.2-4.2-0.2c-10,0-20.1,0-30.1,0c-4.9,0-5.4-0.6-5.5-5.4
		c0-0.3,0-0.6,0-0.9c0-6.6,0-13.4,0.1-20c0-0.9,0-1.9,0.2-2.8c0.2-1.6,1.4-2,2.7-0.9c1.2,1,2.2,2.2,3.4,3.3c1.6,1.5,3.1,3.1,4.7,4.6
		c0.5,0.4,1,0.7,1.7,0.3c0.6-0.4,0.9-1.5,0.4-2.1c-1.2-1.4-2.5-2.8-3.8-4.1c-1.5-1.6-3.1-3.1-4.5-4.8c-0.7-0.8-0.2-1.9,0.9-2.1
		c0.1,0,0.3,0,0.3,0h20.2c0,2.1,0,4.1,0,6.2c0,2,0.2,2.2,2.4,2.2c3.1,0,6.3,0,9.4,0c1.3,0,2.3,0.4,3.1,1.3c1.3,1.4,2.7,2.8,4.1,4.2
		c2,2,4,4.1,6.1,6.1C490.7,269.1,492.1,269.3,492.8,268.7z"/>
</g>
<path d="M497.6,186.4c0,1.7,0,3.4-0.2,5.1c-0.2,1.9-1,2.7-3,2.8c-1.7,0.1-3.4,0.1-5.1,0.1c-12.5,0-70.9,0.7-86.8,0.8
	c-0.8,0-1.7-0.1-2.5,0c-3.7,0.4-6.5-1-9-3.7c-2.4-2.6-4.9-5.1-7.6-7.5c-2.3-2.1-3.4-4.6-3.1-7.6c0.1-0.5,0-1,0-1.5
	c-0.1-40.6-0.2-81.7-0.2-122.3c0-1.5,0-3.1,0.1-4.6c0.2-1.9,0.9-2.6,2.9-2.8c1-0.1,2-0.1,3-0.1c13.5-0.3,48.9-0.8,53.1-0.8l0,0
	c12.3,0,24.5,0,36.8,0c7.9,0,6.8-0.6,12.8,5.3c2,2,4,4.1,6.1,6.1c1.7,1.6,2.5,3.5,2.4,5.9c-0.1,2,0,4.1,0,6.1
	C497.5,86.9,497.6,166.2,497.6,186.4z M491.3,188.1c0.3-0.3,0.5-1,0.3-1.3c-0.6-1-1.3-1.9-2.2-2.8c-2.7-2.8-5.5-5.5-8.3-8.2
	c-1.7-1.6-2.4-3.5-2.5-5.9c-0.1-8.6-0.5-17.2-0.5-25.9c-0.2-28.6-0.2-57.7-0.3-86.3c0-1.5,0-3.1-0.2-4.6c-0.1-1.6-0.9-2.4-2.6-2.6
	c-1.7-0.1-3.4-0.1-5.1-0.1c-7.6,0-59.4,0.2-77.8,0.3c-6.5,0-6.5,0-6.5,6.5c0,17.9,0,35.9,0.1,53.8c0.1,19.6,0.5,39.7,0.7,59.4
	c0,0.5,0,1,0,1.5c0.2,2.9,0.9,3.6,3.6,3.8c1.7,0.1,3.4,0.1,5.1,0.1c11.1,0,22.2-0.1,33.3-0.1v-0.1c5,0,10,0,15-0.1l0,0
	c1.2,0,2.3,0,3.5,0c0.3,0,0.5,0,0.8,0c1,0,2,0,3.1,0c2,0,4,0,5.9,0c4.9,0,9.8,0,14.6-0.1c3.3-0.1,5.8,1,8.1,3.4
	c2.4,2.6,5,5.1,7.6,7.5c0.8,0.8,1.8,1.5,2.8,2.1C490.3,188.6,491,188.4,491.3,188.1z"/>
<path d="M461.8,149.6c0,1.9,0,3.7-0.2,5.6c-0.2,2.5-1.1,3.2-3.5,3.5c-1.2,0.1-2.4,0.1-3.5,0.1c-1.5,0-2.9,0-4.3,0
	c-0.2,0-0.3,0-0.5,0l0,0c0,0-27.5,0.2-40.5,0.2c-6.1,0-6.5-0.3-6.5-6.2c-0.1-25.4-0.2-51.2-0.2-76.6c0-1.4-0.7-3.4,1.1-4
	c1.4-0.5,2.3,1.1,3.2,2c2.1,2,4.1,4,6.2,6.1c0.5,0.5,1,0.9,1.5,1.3c0.6,0.4,1.3,0.3,1.8-0.2s0.8-1.2,0.3-1.8c-1-1.2-2.1-2.2-3.1-3.3
	c-2.1-2.2-4.3-4.3-6.3-6.5c-0.6-0.7-0.2-1.8,0.7-2c0.8-0.1,1.7-0.2,2.5-0.2c5.5-0.1,22.3-0.6,25.2-0.6c1.9,0,3.7,0,5.6,0l0,0
	c1.7,0,3.3,0,5,0c0.8,0,1.5,0,2.3,0l0,0c1.9,0,3.8,0,5.7,0c6.8,0,6.9,0.2,7,6.7C461.4,98.7,461.6,124.4,461.8,149.6z M455.8,147.1
	c0-9.1-0.2-45.5-0.2-54.3c0-6.4-0.1-6.6-6-6.6c0,0-13.8,0.1-20.7,0.1c-6.7,0-6.7,0.1-6.7,6.9c0,17.9,0.1,36.3,0.1,54.3
	c0,0.7,0,1.3,0,2c0.2,3.1,0.8,3.6,4.1,3.8l0,0l0,0c5.5,0,10.9,0,16.4,0l0,0c2.4,0,4.7,0,7.1,0C455.5,153.1,455.8,152.9,455.8,147.1z
	"/>
<g>
	<path class="st0" d="M403.2,258.4c0.1,0.3-0.1,1-0.4,1.2s-1,0.3-1.3,0.2c-0.8-0.5-1.5-1.1-2.2-1.7c-2.5-2.4-5-4.7-7.3-7.3
		c-1.8-2-3.9-3-6.6-2.8c-3.1,0.1-6.3,0.1-9.4,0.1c-0.4,0-0.9,0.3-1.2,0.6c-0.5,0.6-0.1,1.2,0.3,1.7c1.7,1.8,3.5,3.6,5.3,5.4
		c1.1,1.1,2.2,2.2,3.2,3.4c0.5,0.5,0.2,1.2-0.2,1.7c-0.5,0.5-1.1,0.7-1.7,0.3c-1.5-1.4-3-2.8-4.5-4.2s-3-2.8-4.5-4.1
		c-0.6-0.5-1.8-0.1-1.9,0.7c-0.2,1.2-0.3,2.5-0.3,3.7c0,25.1,0.1,51.1,0.2,76.1c0,3.3,0.1,6.6,0,9.9c0,2.5,0.8,4.5,2.6,6.3
		c2.7,2.4,5.2,5,7.7,7.6c0.7,0.7,1.3,1.4,1.8,2.1c0.3,0.4,0.2,1-0.1,1.3c-0.3,0.2-0.9,0.4-1.3,0.3c-1.1-0.2-1.9-1-2.7-1.8
		c-2.3-2.3-4.8-4.5-7-6.9c-2.2-2.5-4.8-3.4-7.9-3.2c-1.6,0.1-3.1,0-4.7,0c-3.4-0.1-3.9-0.6-4-4.3c0-0.8,0-1.6,0-2.4l-0.2-87.4
		c0-1.2,0-2.5-0.1-3.8c-0.2-2.1-0.9-2.8-2.9-2.9c-2.8-0.1-5.6-0.1-8.5-0.1c-2.2,0-4.4,0-6.6-0.1c-1.6-0.1-2.4-0.8-2.4-2.3
		c-0.1-3.6-0.1-7.2,0-10.8c0-1.3,0.8-2,2-2.2c1.1-0.1,2.2-0.1,3.3-0.1c15.3,0,30.7,0,46,0c5.4,0,5.4,0.1,5.5,5.6
		c0.1,9.2-0.8,6.9,5.7,13.4c1.7,1.7,3.4,3.3,5,5C402.5,257,403,257.7,403.2,258.4z"/>
	<path d="M409.1,262.1c0,2.3-0.7,3.1-3,3.4s-4.7,0.4-7,0.5c-2.5,0.1-5,0-7.5,0.1c-2.7,0.1-3.4,0.8-3.4,3.4c0,4.4,0,8.8,0.1,13.1
		c0,2.5,0.3,6,0.3,8.5c0.1,23,0.2,46,0.2,69c0,6.5-0.1,6.6-6.5,6.7c-5,0-10-0.1-15,0.1c-3.1,0.1-5.4-0.9-7.5-3.2
		c-1.7-1.9-3.5-3.5-5.3-5.3c-4.5-4.5-4.5-4.5-4.5-10.6c0-6.9,0-13.8,0-20.7c0-5.5-0.1-42.8-0.1-55.4c0-4.1,0.5-6-5.4-5.7
		c-1.8,0.1-3.3-0.7-4.6-2c-2.8-2.9-5.7-5.8-8.6-8.6c-1.4-1.4-2.1-3-2.3-5c-0.7-6.4-0.3-12.8-0.4-19.2c0-0.8,0.2-1.5,0.4-2.3
		s0.8-1.4,1.7-1.5c1.1-0.1,2.2-0.2,3.3-0.2c19.4,0,38.8,0,58.2,0c2.9,0,5.1,0.8,7.1,2.9c2.3,2.5,4.9,4.9,7.3,7.3
		c1.4,1.4,2.2,2.9,2.2,5C408.9,249,409,255.5,409.1,262.1z M402.9,259.6c0.3-0.2,0.5-0.9,0.4-1.2c-0.3-0.7-0.7-1.4-1.3-1.9
		c-1.6-1.7-3.3-3.3-5-5c-6.4-6.5-5.6-4.2-5.7-13.4c-0.1-5.5-0.1-5.6-5.5-5.6c-15.3,0-30.7,0-46,0c-1.1,0-2.2,0-3.3,0.1
		c-1.2,0.1-2,0.9-2,2.2c-0.1,3.6-0.1,7.2,0,10.8c0,1.6,0.8,2.2,2.4,2.3c2.2,0.1,4.4,0.1,6.6,0.1c2.8,0,5.6,0,8.5,0.1
		c2,0.1,2.7,0.9,2.9,2.9c0.1,1.2,0.1,2.5,0.1,3.8l0.2,87.4c0,0.8,0,1.6,0,2.4c0.1,3.6,0.6,4.1,4,4.3c1.6,0.1,3.1,0.1,4.7,0
		c3.2-0.2,5.8,0.7,7.9,3.2c2.2,2.4,4.7,4.6,7,6.9c0.8,0.8,1.5,1.6,2.7,1.8c0.4,0.1,0.9-0.1,1.3-0.3c0.4-0.3,0.4-0.9,0.1-1.3
		c-0.5-0.8-1.1-1.5-1.8-2.1c-2.5-2.6-5-5.1-7.7-7.6c-1.9-1.7-2.6-3.8-2.6-6.3c0-3.3,0-6.6,0-9.9c-0.1-25.1-0.1-51.1-0.2-76.1
		c0-1.2,0.1-2.5,0.3-3.7c0.1-0.8,1.2-1.2,1.9-0.7c1.5,1.3,3,2.7,4.5,4.1c1.5,1.4,2.9,2.8,4.5,4.2c0.5,0.5,1.2,0.2,1.7-0.3
		s0.7-1.1,0.2-1.7c-1-1.2-2.1-2.3-3.2-3.4c-1.8-1.8-3.5-3.5-5.3-5.4c-0.4-0.4-0.8-1.1-0.3-1.7c0.2-0.3,0.8-0.6,1.2-0.6
		c3.1-0.1,6.3,0,9.4-0.1c2.7-0.1,4.8,0.8,6.6,2.8c2.3,2.5,4.9,4.9,7.3,7.3c0.7,0.6,1.4,1.2,2.2,1.7
		C401.9,260,402.6,259.9,402.9,259.6z"/>
</g>
<path d="M368.8,186.4c0,1.7,0,3.4-0.2,5.1c-0.2,1.9-1,2.7-3,2.8c-1.7,0.1-3.4,0.1-5.1,0.1c-12.5,0-70.9,0.7-86.8,0.8
	c-0.8,0-1.7-0.1-2.5,0c-3.7,0.4-6.5-1-8.9-3.7c-2.4-2.6-4.9-5.1-7.6-7.5c-2.3-2.1-3.4-4.6-3.1-7.6c0-0.5,0-1,0-1.5
	c-0.1-40.6-0.2-81.7-0.2-122.3c0-1.5,0-3.1,0.1-4.6c0.2-1.9,0.9-2.6,2.9-2.8c1-0.1,2-0.1,3-0.1c13.5-0.3,48.9-0.8,53.1-0.8l0,0
	c12.3,0,24.5,0,36.8,0c7.9,0,6.8-0.6,12.8,5.3c2,2,4,4.1,6.1,6.1c1.7,1.6,2.5,3.5,2.4,5.9c0,2,0,4.1,0,6.1
	C368.7,86.9,368.8,166.2,368.8,186.4z M362.5,188.1c0.3-0.3,0.5-1,0.3-1.3c-0.6-1-1.3-1.9-2.2-2.8c-2.7-2.8-5.5-5.5-8.3-8.2
	c-1.7-1.6-2.4-3.5-2.5-5.9c-0.1-8.6-0.5-17.2-0.6-25.9c-0.2-28.6-0.2-57.7-0.3-86.3c0-1.5,0-3.1-0.1-4.6c-0.2-1.6-0.9-2.4-2.6-2.6
	c-1.7-0.1-3.4-0.1-5.1-0.1c-7.6,0-59.4,0.2-77.8,0.3c-6.5,0-6.5,0-6.5,6.5c0,17.9,0,35.9,0.1,53.8c0.2,19.6,0.5,39.7,0.7,59.4
	c0,0.5,0,1,0,1.5c0.2,2.9,0.9,3.6,3.6,3.8c1.7,0.1,3.4,0.1,5.1,0.1c11.1,0,22.2-0.1,33.3-0.1v-0.1c5,0,10,0,15-0.1l0,0
	c1.2,0,2.3,0,3.5,0c0.3,0,0.5,0,0.8,0c1,0,2,0,3.1,0c2,0,4,0,5.9,0c4.9,0,9.8,0,14.6-0.1c3.3-0.1,5.9,1,8.1,3.4
	c2.4,2.6,5,5.1,7.6,7.5c0.8,0.8,1.8,1.5,2.8,2.1C361.5,188.6,362.2,188.4,362.5,188.1z"/>
<path d="M333,149.6c0,1.9,0,3.7-0.2,5.6c-0.2,2.5-1.1,3.2-3.5,3.5c-1.2,0.1-2.4,0.1-3.5,0.1c-1.4,0-2.9,0-4.3,0c-0.1,0-0.3,0-0.5,0
	l0,0c0,0-27.4,0.2-40.5,0.2c-6.1,0-6.5-0.3-6.5-6.2c-0.1-25.4-0.2-51.2-0.2-76.6c0-1.4-0.7-3.4,1.1-4c1.4-0.5,2.3,1.1,3.2,2
	c2.1,2,4.1,4,6.2,6.1c0.5,0.5,1,0.9,1.5,1.3c0.6,0.4,1.3,0.3,1.8-0.2s0.8-1.2,0.3-1.8c-1-1.2-2-2.2-3.1-3.3
	c-2.1-2.2-4.3-4.3-6.4-6.5c-0.6-0.7-0.2-1.8,0.7-2c0.8-0.1,1.7-0.2,2.5-0.2c5.5-0.1,22.3-0.6,25.2-0.6c1.9,0,3.7,0,5.6,0l0,0
	c1.7,0,3.3,0,5,0c0.8,0,1.5,0,2.3,0l0,0c1.9,0,3.8,0,5.7,0c6.8,0,6.9,0.2,7,6.7C332.6,98.7,332.8,124.4,333,149.6z M327,147.1
	c0-9.1-0.2-45.5-0.2-54.3c0-6.4-0.1-6.6-6-6.6c0,0-13.8,0.1-20.7,0.1c-6.7,0-6.7,0.1-6.7,6.9c0,17.9,0.1,36.3,0.1,54.3
	c0,0.7,0,1.3,0,2c0.2,3.1,0.7,3.6,4.1,3.8l0,0l0,0c5.4,0,10.9,0,16.3,0l0,0c2.3,0,4.7,0,7.1,0C326.7,153.1,327,152.9,327,147.1z"/>
<g>
	<path class="st0" d="M312.7,357.2c2,2,2.5,3.3,1.5,3.8c-1.7,0.8-2.6-0.6-3.5-1.5c-2.7-2.6-5.4-5.2-8-7.9c-1.7-1.8-3.7-2.8-6.2-2.7
		c-2.2,0.1-4.4,0.1-6.6-0.1c-2.4-0.1-3.1-0.8-3.2-3.1c-0.1-1.2,0-2.5,0-3.8c0-11.6,0-24.3,0-35.9c0-1.2,0-2.5,0-3.8
		c-0.1-3.6-0.6-4.2-4-4.3c-4.9-0.1-9.7,0-14.6,0c-0.5,0-0.9,0.1-1.4,0.2c-1.4,0.2-1.9,1.3-1,2.4c1,1.2,2.1,2.3,3.2,3.4
		c1.6,1.7,3.3,3.4,4.9,5c0.5,0.5,0.7,1.1,0.2,1.7c-0.6,0.6-1.4,0.9-2.1,0.3c-1-0.8-1.9-1.6-2.8-2.5c-1.9-1.8-3.8-3.7-5.8-5.5
		c-1-0.9-2.2-0.4-2.3,1c-0.1,1.1-0.2,2.2-0.2,3.3c0,11.4,0.1,24,0,35.4c0,3.4,0.9,6,3.6,8.2c2.1,1.7,3.9,3.6,5.8,5.5
		c0.7,0.7,1.3,1.3,1.9,2c0.6,0.8,1,1.6,0.5,2.6c-0.4,0.7-1.4,0.5-2.4-0.4c-1.7-1.6-3.4-3.3-5-4.9c-1.2-1.2-2.5-2.4-3.6-3.7
		c-1.9-2.1-4.3-3-7.1-2.9c-2.2,0.1-4.4,0.1-6.6,0.1c-1.7,0-2.3-0.6-2.4-2.2c-0.1-1.1-0.1-2.2-0.1-3.3l-0.1-105c0-1.3,0-2.5,0.1-3.8
		c0.1-1.5,0.8-2.1,2.4-2.3c0.9-0.1,1.9-0.1,2.8-0.1c15.2,0,30.4,0,45.6,0c6,0,6,0,6,6c0,11.1,0,22.2,0,33.4c0,1.2,0.1,2.5,0,3.8
		c-0.2,2.7,0.9,4.8,2.8,6.6c2.5,2.4,4.9,4.8,7.3,7.3c0.9,0.9,1.8,1.8,2,3.1c0.1,0.4-0.1,1-0.3,1.3c-0.3,0.4-0.9,0.2-1.2-0.1
		c-2.3-2.2-4.5-4.3-6.7-6.5c-4.3-4.4-4.9-4.6-9.6,0.6c-0.1,0.1-0.2,0.2-0.3,0.4c-1.5,1.9-1.5,2.7,0.1,4.5c1.3,1.4,2.6,2.7,4,4
		c1.5,1.4,2.1,3,2,5c0,1.1,0,2.2,0,3.3c0,11.3,0,23.7,0,35c0,1.2,0.1,2.5,0,3.8c-0.1,2.2,0.7,3.9,2.3,5.4
		C307.2,351.7,309.9,354.5,312.7,357.2z M286.5,277c0-3.9,0-7.8,0-11.7l0,0l0,0c0-3.9,0-7.8,0-11.7c0-1.1-0.1-2.2-0.2-3.3
		c-0.1-1-0.8-1.7-1.8-1.9c-1.1-0.2-2.2-0.3-3.2-0.3c-3.6,0-7.2-0.1-10.8,0.1c-1.9,0.1-4.1-0.9-5.7,1c0.4,2,2.2,3,3.4,4.3
		c1.8,2,3.7,3.8,5.5,5.7c0.5,0.5,0.4,1.2-0.1,1.7s-1.1,0.8-1.7,0.4c-0.9-0.6-1.7-1.4-2.5-2.1c-2-1.9-4-3.9-6.1-5.9
		c-0.5-0.4-1-0.7-1.7-0.4s-0.8,0.9-0.9,1.5c-0.1,0.5-0.1,0.9-0.1,1.4c0,7.4,0,14.7,0,22.1c0,0.9,0.1,1.9,0.3,2.8
		c0.2,1,0.9,1.7,1.9,1.9c1.5,0.2,3.1,0.4,4.7,0.2c4.5-0.5,9.1-0.4,13.6-0.5c1.1,0,2.2,0,3.3-0.2c1-0.1,1.7-0.8,1.9-1.8
		C286.5,279.2,286.5,278.1,286.5,277z"/>
	<path d="M320.1,313.4c0,15.8,0.1,32.8,0.1,48.6c0,4.3-0.6,4.8-5,4.9c-5.8,0.1-11.6,0-17.4,0.1c-2.4,0-4.2-0.8-5.9-2.5
		c-2.5-2.6-5-5.2-7.7-7.6c-2.1-2-2.9-4.2-2.9-7.1c0.1-9.1,0-19.3,0-28.4c0-1.4,0.2-2.8-0.4-4.2c-0.1-0.2-0.4-0.5-0.7-0.5
		c-0.5-0.1-0.9,0.1-1.1,0.5c-0.6,1.3-0.5,2.8-0.5,4.2c0,7.4,0,15.9,0,23.2c0,5.6,0,11.3,0,16.9c0,0.9,0,1.9-0.1,2.8
		c-0.2,1.6-0.9,2.2-2.4,2.5c-0.6,0.1-1.2,0.1-1.9,0.1c-6.1,0-12.2,0-18.3,0c-2,0-3.6-0.7-5-2.1c-3-3-6-6-9-9
		c-1.3-1.3-1.9-2.8-1.9-4.6c0-1.4,0-2.8,0-4.2c0-18.5-0.1-94.5-0.1-113.5c0-1.1,0-2.2,0.1-3.3c0.2-2,0.9-2.7,3-2.9
		c1.2-0.1,2.5-0.1,3.8-0.1c18.5,0,37,0,55.5-0.1c3,0,5.4,0.7,7.5,3c2.4,2.7,5.1,5.1,7.7,7.6c1.7,1.6,2.6,3.5,2.6,5.8
		c0,1.1,0,2.2,0,3.3c0,15.2,0,30.4,0,45.6c0,1.1,0,2.2,0,3.3c0,1.8-0.6,3.4-1.9,4.6c-0.8,0.8-1.5,1.5-2.2,2.4
		c-0.5,0.6-0.6,1.4-0.1,2.1c0.5,0.6,1,1.2,1.6,1.7C319.6,308.4,320.1,310.8,320.1,313.4z M314.2,361.1c1-0.5,0.5-1.8-1.5-3.8
		c-2.8-2.8-5.5-5.6-8.3-8.3c-1.6-1.5-2.3-3.3-2.3-5.4c0-1.2,0-2.5,0-3.8c0-11.3,0-23.7,0-35c0-1.1,0-2.2,0-3.3c0.1-2-0.6-3.6-2-5
		c-1.4-1.3-2.7-2.6-4-4c-1.6-1.7-1.6-2.5-0.1-4.5c0.1-0.1,0.2-0.2,0.3-0.4c4.7-5.1,5.2-4.9,9.6-0.6c2.2,2.2,4.5,4.4,6.7,6.5
		c0.3,0.3,0.9,0.5,1.2,0.1c0.3-0.3,0.4-0.8,0.3-1.3c-0.2-1.3-1.2-2.2-2-3.1c-2.4-2.4-4.8-4.9-7.3-7.3c-1.9-1.8-3-3.9-2.8-6.6
		c0.1-1.2,0-2.5,0-3.8c0-11.1,0-22.2,0-33.4c0-5.9,0-6-6-6c-15.2,0-30.4,0-45.6,0c-0.9,0-1.9,0-2.8,0.1c-1.6,0.2-2.3,0.8-2.4,2.3
		c-0.1,1.2-0.1,2.5-0.1,3.8l0.1,105c0,1.1,0,2.2,0.1,3.3c0.1,1.6,0.8,2.2,2.4,2.2c2.2,0,4.4,0,6.6-0.1c2.8-0.1,5.2,0.8,7.1,2.9
		c1.1,1.3,2.4,2.4,3.6,3.7c1.7,1.7,3.3,3.3,5,4.9c1,0.9,2,1.1,2.4,0.4c0.6-1,0.2-1.8-0.5-2.6c-0.6-0.7-1.3-1.4-1.9-2
		c-1.9-1.8-3.7-3.8-5.8-5.5c-2.7-2.2-3.6-4.8-3.6-8.2c0.1-11.4,0-24,0-35.4c0-1.1,0-2.2,0.2-3.3c0.2-1.4,1.3-1.9,2.3-1
		c2,1.8,3.8,3.7,5.8,5.5c0.9,0.9,1.8,1.8,2.8,2.5c0.7,0.5,1.5,0.3,2.1-0.3c0.5-0.6,0.3-1.2-0.2-1.7c-1.6-1.7-3.3-3.4-4.9-5
		c-1.1-1.1-2.2-2.2-3.2-3.4c-0.9-1-0.4-2.1,1-2.4c0.5-0.1,0.9-0.2,1.4-0.2c4.9,0,9.7-0.1,14.6,0c3.4,0.1,3.9,0.8,4,4.3
		c0,1.2,0,2.5,0,3.8c0,11.6,0,24.3,0,35.9c0,1.2,0,2.5,0,3.8c0.2,2.3,0.8,3,3.2,3.1c2.2,0.1,4.4,0.1,6.6,0.1
		c2.5-0.1,4.5,0.8,6.2,2.7c2.6,2.7,5.3,5.3,8,7.9C311.6,360.5,312.5,361.9,314.2,361.1z"/>
</g>
<path d="M286.5,265.2c0,3.9,0,7.8,0,11.7c0,1.1-0.1,2.2-0.2,3.3c-0.2,1-0.9,1.7-1.9,1.8c-1.1,0.1-2.2,0.2-3.3,0.2
	c-4.5,0-9.1-0.1-13.6,0.5c-1.5,0.2-3.1,0-4.7-0.2c-1-0.1-1.7-0.9-1.9-1.9c-0.2-0.9-0.3-1.9-0.3-2.8c0-7.4,0-14.7,0-22.1
	c0-0.5,0-1,0.1-1.4c0.1-0.6,0.2-1.2,0.9-1.5s1.2,0,1.7,0.4c2,2,4,3.9,6.1,5.9c0.8,0.8,1.6,1.5,2.5,2.1c0.6,0.4,1.2,0.1,1.7-0.4
	s0.5-1.2,0.1-1.7c-1.8-1.9-3.8-3.8-5.5-5.7c-1.2-1.4-3-2.3-3.4-4.3c1.6-1.9,3.8-0.9,5.7-1c3.6-0.2,7.2-0.1,10.8-0.1
	c1.1,0,2.2,0.1,3.2,0.3s1.7,0.9,1.8,1.9c0.1,1.1,0.2,2.2,0.2,3.3C286.5,257.4,286.5,261.3,286.5,265.2L286.5,265.2L286.5,265.2z
	 M281.4,272.1c-0.1-1.9,0.2-3.4-0.4-4.7c-0.1-0.2-0.4-0.5-0.7-0.5c-0.5-0.1-1,0.1-1.1,0.6c-0.7,2.8-0.7,5.5,0,8.3
	c0.1,0.5,0.6,0.7,1.1,0.5c0.3-0.1,0.6-0.3,0.7-0.5C281.2,274.4,281.3,273,281.4,272.1z"/>
<path d="M240,186.4c0,1.7,0,3.4-0.2,5.1c-0.2,1.9-1,2.7-3,2.8c-1.7,0.1-3.4,0.1-5.1,0.1c-12.5,0-70.9,0.7-86.8,0.8
	c-0.8,0-1.7-0.1-2.5,0c-3.7,0.4-6.5-1-9-3.7c-2.4-2.6-4.9-5.1-7.5-7.5c-2.3-2.1-3.4-4.6-3.1-7.6c0-0.5,0-1,0-1.5
	c-0.1-40.6-0.2-81.7-0.2-122.3c0-1.5,0-3.1,0.1-4.6c0.2-1.9,0.9-2.6,2.9-2.8c1-0.1,2-0.1,3-0.1c13.5-0.3,48.9-0.8,53.1-0.8l0,0
	c12.3,0,24.5,0,36.8,0c7.9,0,6.8-0.6,12.8,5.3c2,2,4,4.1,6.1,6.1c1.7,1.6,2.5,3.5,2.4,5.9c-0.1,2,0,4.1,0,6.1
	C239.9,86.9,240,166.2,240,186.4z M233.8,188.1c0.3-0.3,0.5-1,0.3-1.3c-0.6-1-1.3-1.9-2.2-2.8c-2.7-2.8-5.5-5.5-8.3-8.2
	c-1.7-1.6-2.4-3.5-2.5-5.9c-0.1-8.6-0.5-17.2-0.6-25.9c-0.2-28.6-0.2-57.7-0.3-86.3c0-1.5,0-3.1-0.1-4.6c-0.1-1.6-0.9-2.4-2.6-2.6
	c-1.7-0.1-3.4-0.1-5.1-0.1c-7.6,0-59.4,0.2-77.8,0.3c-6.5,0-6.5,0-6.5,6.5c0,17.9,0,35.9,0.1,53.8c0.1,19.6,0.5,39.7,0.7,59.4
	c0,0.5,0,1,0,1.5c0.2,2.9,0.9,3.6,3.6,3.8c1.7,0.1,3.4,0.1,5.1,0.1c11.1,0,22.2-0.1,33.3-0.1v-0.1c5,0,10,0,15.1-0.1l0,0
	c1.2,0,2.3,0,3.5,0c0.3,0,0.5,0,0.8,0c1,0,2,0,3.1,0c2,0,3.9,0,5.9,0c4.9,0,9.8,0,14.6-0.1c3.3-0.1,5.9,1,8.1,3.4
	c2.4,2.6,5,5.1,7.5,7.5c0.8,0.8,1.8,1.5,2.8,2.1C232.7,188.6,233.5,188.4,233.8,188.1z"/>
<g>
	<path class="st0" d="M222.7,359.2c0.5,0.6,0.8,1.4,0,2.1c-0.5,0.4-1.2,0.3-1.7-0.1c-1-0.8-1.9-1.6-2.8-2.5
		c-2.2-2.2-4.5-4.4-6.6-6.6c-1.7-1.9-3.8-2.5-6.3-2.5c-15,0.2-30-0.9-45.1-0.6c-5.9,0.1-6-0.2-6.1-6.1l0.2-104.4c0-5.9,0-6,6-5.9
		c2.3,0,4.7,0,7,0.2c1.6,0.1,2.2,0.8,2.4,2.4c0.1,1.6,0.1,3.1,0.1,4.7c0,28.5-0.1,58.1-0.1,86.6c0,1.6,0,3.1,0.1,4.7
		c0.1,1.8,0.8,2.5,2.6,2.7c0.9,0.1,1.9,0.2,2.8,0.2c4.9,0,9.7,0,14.6,0c0.5,0,0.9,0,1.4,0c3.4-0.2,4.1-0.9,4.3-4.2
		c0.1-1.6,0.1-3.1,0.1-4.7c0-28.2,0.1-57.4,0.1-85.6c0-1.6,0.1-3.1,0.2-4.7c0.1-1,0.8-1.8,1.8-1.9c3.9-0.3,7.8-0.4,11.7,0
		c0.8,0.1,1.5,0.8,1.5,1.6c0.2,1.6,0.2,3.1,0.2,4.7c0,23-0.1,47.1-0.1,70.1c0,11.3,0,22.5-0.1,33.8c0,3.1,0.7,5.5,3,7.5
		c2.2,2,4.3,4.1,6.4,6.3C221.3,357.5,222.1,358.3,222.7,359.2z"/>
	<path d="M226.9,237.7c1.9,1.8,2.6,3.8,2.5,6.3c-0.1,3.8,0,7.5,0,11.3c-0.1,21.5,0.2,44-0.2,65.4c-0.3,13.8-0.4,27.5-0.5,41.3
		c0,4.5-0.5,4.9-5.3,5c-11.9,0-23.8,0-35.7,0c-7,0-14.1-0.2-21.1,0c-3.8,0.1-6.6-1.1-9-3.9c-1.7-2-3.6-3.9-5.6-5.6
		c-2.6-2.2-3.5-5-3.4-8.4c0.1-6.4-0.1-12.8,0.1-19.3c0.8-31.9,0.5-65,0.6-96.9c0-5.3,0.4-5.7,5.5-5.7c5.3,0,10.6,0.1,16,0
		c2.9-0.1,5.1,0.7,7,3c2.2,2.6,4.7,5,7.2,7.4c1.9,1.8,2.6,3.8,2.5,6.3c-0.1,5.8-0.1,57.9-0.1,77.7c0,1.6,0,3.1,0.2,4.7
		c0.1,0.8,0.6,1.5,1.5,1.4s1.3-0.8,1.4-1.6c0.1-1.4,0.1-2.8,0.1-4.2c0-14.4,0.1-73.4,0.1-88c0-6.5,0.1-6.5,6.6-6.5
		c5.2,0,10.3,0.1,15.5,0c2.7-0.1,4.8,0.8,6.6,2.8C221.8,232.6,224.3,235.2,226.9,237.7z M222.7,361.2c0.8-0.6,0.5-1.4,0-2.1
		c-0.7-0.9-1.4-1.7-2.2-2.5c-2.1-2.1-4.1-4.3-6.4-6.3s-3.1-4.4-3-7.5c0.1-11.3,0.1-22.5,0.1-33.8c0-23,0.1-47.1,0.1-70.1
		c0-1.6-0.1-3.1-0.2-4.7c-0.1-0.8-0.7-1.5-1.5-1.6c-3.9-0.5-7.8-0.4-11.7,0c-1,0.1-1.7,0.8-1.8,1.9c-0.2,1.6-0.2,3.1-0.2,4.7
		c0,28.2-0.1,57.4-0.1,85.6c0,1.6,0,3.1-0.1,4.7c-0.2,3.3-0.9,4-4.3,4.2c-0.5,0-0.9,0-1.4,0c-4.9,0-9.7,0-14.6,0
		c-0.9,0-1.9,0-2.8-0.2c-1.8-0.3-2.5-0.9-2.6-2.7c-0.1-1.6-0.1-3.1-0.1-4.7c0-28.5,0.1-58.1,0.1-86.6c0-1.6,0-3.1-0.1-4.7
		s-0.8-2.3-2.4-2.4c-2.3-0.1-4.7-0.2-7-0.2c-6,0-6,0-6,5.9l-0.2,104.4c0,5.9,0.2,6.2,6.1,6.1c15-0.3,30,0.7,45.1,0.6
		c2.5,0,4.5,0.7,6.3,2.5c2.1,2.3,4.4,4.5,6.6,6.6c0.9,0.9,1.8,1.7,2.8,2.5C221.5,361.5,222.2,361.7,222.7,361.2z"/>
</g>
<path d="M204.2,149.6c0,1.9,0,3.7-0.1,5.6c-0.2,2.5-1.1,3.2-3.5,3.5c-1.2,0.1-2.4,0.1-3.5,0.1c-1.5,0-2.9,0-4.3,0
	c-0.1,0-0.3,0-0.5,0l0,0c0,0-27.5,0.2-40.5,0.2c-6.1,0-6.5-0.3-6.5-6.2c-0.1-25.4-0.2-51.2-0.2-76.6c0-1.4-0.7-3.4,1.1-4
	c1.4-0.5,2.3,1.1,3.2,2c2.1,2,4.1,4,6.1,6.1c0.5,0.5,1,0.9,1.5,1.3c0.6,0.4,1.3,0.3,1.8-0.2s0.8-1.2,0.3-1.8c-1-1.2-2.1-2.2-3.1-3.3
	c-2.1-2.2-4.3-4.3-6.4-6.5c-0.6-0.7-0.2-1.8,0.7-2c0.8-0.1,1.7-0.2,2.5-0.2c5.5-0.1,22.3-0.6,25.2-0.6c1.9,0,3.7,0,5.6,0l0,0
	c1.7,0,3.3,0,5,0c0.8,0,1.5,0,2.3,0l0,0c1.9,0,3.8,0,5.7,0c6.8,0,6.9,0.2,7,6.7C203.8,98.7,204,124.4,204.2,149.6z M198.2,147.1
	c0-9.1-0.2-45.5-0.2-54.3c0-6.4-0.1-6.6-6.1-6.6c0,0-13.8,0.1-20.7,0.1c-6.7,0-6.7,0.1-6.7,6.9c0,17.9,0.1,36.3,0.1,54.3
	c0,0.7,0,1.3,0,2c0.2,3.1,0.7,3.6,4.1,3.8l0,0l0,0c5.4,0,10.9,0,16.4,0l0,0c2.3,0,4.7,0,7.1,0C198,153.1,198.2,152.9,198.2,147.1z"
	/>
<g>
	<path class="st0" d="M132.1,359.7c0.1,0.2,0,0.6-0.1,0.9c-0.3,0.5-0.8,0.6-1.2,0.4c-0.6-0.2-1.1-0.6-1.6-1
		c-0.8-0.7-1.6-1.5-2.4-2.3c-2.2-2.2-4.5-4.4-6.6-6.7c-1.7-1.9-3.7-2.7-6.2-2.6c-2.4,0-4.7,0-7.1-0.1c-1.8-0.1-2.6-0.9-2.6-2.6
		c-0.1-2.7-0.2-5.3,0-8c0.8-9.4,0.4-18.8,0.5-28.2c0-2,0-4.1,0-6.1c0-0.9-0.1-1.9-0.3-2.8c-0.2-1.2-1-1.9-2.2-2.1
		c-0.6-0.1-1.2-0.1-1.9-0.1c-0.7,0-1.5,0-2.2,0h-6.7c-4.1,0-8.2,0-12.4,0c-0.5,0-0.9,0-1.4,0.1c-1.1,0.2-1.6,1.2-0.8,2.1
		c2,2.2,4.1,4.3,6.2,6.4c0.9,0.9,1.7,1.8,2.5,2.8c0.4,0.6,0,1.2-0.5,1.6c-0.4,0.3-0.9,0.5-1.3,0.2c-0.8-0.5-1.5-1.2-2.1-1.8
		c-2.2-2.2-4.4-4.4-6.6-6.6c-0.5-0.5-1-0.8-1.7-0.5s-0.8,1-0.8,1.6c-0.1,1.1-0.1,2.2-0.1,3.3c0,11.6,0,23.2-0.1,34.8
		c0,3,0.7,5.4,3,7.5c2.4,2.2,4.7,4.6,6.9,7c0.8,0.8,1.4,1.7,2,2.6c0.2,0.3,0,1-0.2,1.2c-0.2,0.3-0.9,0.4-1.2,0.3
		c-1.2-0.4-2-1.4-2.9-2.3c-1.9-2-3.8-4.2-5.7-6.2c-3.9-4-4-4-9.4-4c-1.7,0-3.5,0-5.2-0.1c-1.8-0.1-2.5-0.9-2.7-2.6
		c-0.1-1.4-0.1-2.8-0.1-4.2c0-16.9,0.2-85.6,0.2-102.8c0-5.9,0-5.9,6.1-5.9c2.2,0,4.4,0,6.6,0.1c2.1,0.1,2.7,0.8,2.9,2.9
		c0.1,1.4,0.1,2.8,0.1,4.2c0,12.1,0,24.5,0,36.6c0,6.2,0.2,6.4,6.3,6.4c4.2,0,8.4,0,12.6,0c0.2,0,7,0,7.2,0c0.9,0,1.9,0,2.8-0.1
		c2.3-0.2,3-0.9,3.2-3.2c0.1-1.4,0.1-2.8,0.1-4.2c0-12.1,0-24.5,0-36.6c0-6,0-6,6-6c2.4,0,4.7,0,7,0.1c1.5,0.1,2.3,0.9,2.4,2.4
		c0.1,1.2,0.1,2.5,0.1,3.8c0,20,0.3,40.5-0.1,60.5c-0.2,12.5-0.4,25-0.5,37.6c0,1.4,0.1,2.8,0,4.2c-0.3,3.5,0.8,6.3,3.5,8.8
		c2.7,2.4,5,5.2,7.4,7.8C131.3,358.3,131.7,359,132.1,359.7z"/>
	<g>
		<path d="M135.7,238.1c1.6,1.5,2.3,3.3,2.2,5.4c-0.1,1.1,0,2.2,0,3.3c0,18.6,0,37.7,0,56.3h-0.1c0,18.9,0,37.9,0,56.9
			c0,1.4,0,2.8-0.2,4.2c-0.1,1.4-1,2.3-2.4,2.5c-1.1,0.2-2.2,0.3-3.3,0.3c-5.9-0.2-11.9-0.4-17.8-0.6c-1.5,0-2.8-0.5-3.8-1.6
			c-3.2-3.2-6.4-6.5-9.6-9.7c-1.6-1.6-1.8-3.5-1.8-5.6c0-8.9,0.1-17.9,0.1-26.8c0-1.4,0-2.8-0.1-4.2c0-0.5-0.2-1.1-0.7-1.3l-6.7,0.1
			c-0.5,0.2-0.7,0.8-0.7,1.4c-0.1,1.6-0.2,3.1-0.2,4.7c0,12.1,0,24.1-0.1,36.2c0,1.5-0.1,3.1-0.3,4.7c-0.2,1.2-1,1.9-2.2,2
			c-0.3,0-0.6,0.1-0.9,0.1c-6.9,0-13.8,0-20.7,0c-1.5,0-2.8-0.5-3.8-1.6c-3.4-3.5-6.7-7-10-10.6c-1.5-1.6-1.4-3.8-1.4-5.8
			c0.1-2.7,0.4-5.3,0.4-8c0.1-15.2,0.2-86.1,0.2-106.1c0-1.6,0-3.1,0.2-4.7c0.2-1.5,1-2.1,2.5-2.3c0.6-0.1,1.2-0.1,1.9-0.1
			c6,0,11.9,0.1,17.9,0c2.4,0,4.2,0.7,5.9,2.4c2.5,2.6,5,5.2,7.7,7.6c2.1,2,2.9,4.2,2.9,7.1c-0.1,9.1,0,18.6,0,27.6
			c0,1.4,0.1,2.8,0.4,4.2c0,0.1,0.2,0.3,0.4,0.4l6.7,0.2c0.2-0.1,0.4-0.3,0.5-0.4c0.2-0.6,0.4-1.2,0.5-1.8c0.1-1.4,0.1-2.8,0.1-4.2
			c0-11.9,0-24.2,0-36.1c0-6.7,0.2-6.9,6.8-6.9c5.2,0,10.3,0.1,15.5,0c2.4,0,4.2,0.7,5.8,2.5C130.1,232.6,132.9,235.4,135.7,238.1z
			 M132,360.5c0.1-0.2,0.2-0.6,0.1-0.9c-0.4-0.7-0.8-1.4-1.3-1.9c-2.4-2.7-4.7-5.5-7.4-7.8c-2.7-2.4-3.8-5.2-3.5-8.8
			c0.1-1.4,0-2.8,0-4.2c0.1-12.5,0.2-25.1,0.5-37.6c0.4-20.1,0.1-40.5,0.1-60.5c0-1.2,0-2.5-0.1-3.8c-0.2-1.5-0.9-2.3-2.4-2.4
			c-2.3-0.1-4.7-0.1-7-0.1c-6,0-6,0-6,6c0,12.1,0,24.5,0,36.6c0,1.4,0,2.8-0.1,4.2c-0.2,2.4-0.9,3-3.2,3.2c-0.9,0.1-1.9,0.1-2.8,0.1
			c-0.2,0-7,0-7.2,0c-4.2,0-8.4,0-12.6,0c-6.1,0-6.2-0.2-6.3-6.4c0-12.1,0-24.5,0-36.6c0-1.4,0-2.8-0.1-4.2
			c-0.2-2.1-0.8-2.8-2.9-2.9c-2.2-0.1-4.4-0.1-6.6-0.1c-6,0-6.1,0-6.1,5.9c0,17.2-0.2,85.9-0.2,102.8c0,1.4,0,2.8,0.1,4.2
			c0.1,1.8,0.9,2.5,2.7,2.6c1.7,0.1,3.4,0.1,5.2,0.1c5.4,0,5.5,0,9.4,4c2,2,3.8,4.2,5.7,6.2c0.9,0.9,1.7,1.9,2.9,2.3
			c0.4,0.1,1,0,1.2-0.3c0.3-0.3,0.4-1,0.2-1.2c-0.6-0.9-1.2-1.8-2-2.6c-2.3-2.4-4.5-4.8-6.9-7c-2.3-2.1-3-4.5-3-7.5
			c0.1-11.6,0.1-23.2,0.1-34.8c0-1.1,0-2.2,0.1-3.3c0-0.6,0.1-1.3,0.8-1.6c0.7-0.3,1.2,0,1.7,0.5c2.2,2.2,4.4,4.4,6.6,6.6
			c0.7,0.6,1.4,1.3,2.1,1.8c0.4,0.3,0.9,0.1,1.3-0.2c0.5-0.4,0.9-1.1,0.5-1.6c-0.7-1-1.6-1.9-2.5-2.8c-2.1-2.1-4.2-4.2-6.2-6.4
			c-0.8-0.8-0.3-1.9,0.8-2.1c0.5-0.1,0.9-0.1,1.4-0.1c4.1,0,8.2,0,12.4,0h6.7c0.7,0,1.5,0,2.2,0c0.6,0,1.3,0.1,1.9,0.1
			c1.2,0.1,2,0.9,2.2,2.1c0.2,0.9,0.2,1.9,0.3,2.8c0,2,0,4.1,0,6.1c-0.1,9.4,0.3,18.8-0.5,28.2c-0.2,2.6-0.1,5.3,0,8
			c0.1,1.8,0.8,2.5,2.6,2.6c2.4,0.1,4.7,0.2,7.1,0.1c2.5,0,4.5,0.8,6.2,2.6c2.1,2.3,4.4,4.5,6.6,6.7c0.8,0.8,1.5,1.6,2.4,2.3
			c0.4,0.4,1,0.7,1.6,1C131.2,361.1,131.7,361,132,360.5z"/>
	</g>
</g>
<path d="M111.2,190.9c0,4.3,0,4.3-4.3,4.3c-6.9,0-13.7-0.1-20.6,0c-1.9,0-3.3-0.6-4.6-2c-3-3.2-6.1-6.4-9.3-9.3
	c-1.9-1.8-2.5-3.7-2.5-6.2c0.1-20.4,0.1-40.8,0.1-61.1c0-8.5,0-18.6,0-27.1c0-0.7,0-1.4,0-2c-0.1-1.7-0.3-2-2-2
	c-1.8,0-3-0.7-4.2-1.9c-3.4-3.4-6.8-6.9-10.3-10.2c-1.3-1.2-1.8-2.5-1.8-4.2c0.1-7.2,0-14.4,0-21.6c0-2.9,0.3-3.2,3.2-3.2
	c6.5,0,13,0.2,19.5,0.2c6.8,0.1,13.5,0.1,20.3,0c2,0,3.4,0.6,4.7,2c3,3.2,6.1,6.3,9.3,9.3c1.8,1.6,2.5,3.4,2.4,5.8
	C111,80.9,111.2,169.8,111.2,190.9z M104,190c1.3,0.1,1.9-0.5,1.8-1.8c-0.1-1.1-0.9-1.8-1.6-2.5c-3.3-3.3-6.5-6.6-9.9-9.9
	c-1.2-1.2-1.8-2.5-1.8-4.2c0-23-0.3-92.4-0.3-103.2c0-5.3,0-10.7,0-16c0-2.2-0.3-2.5-2.5-2.5c-10.1,0-20.1-0.1-30.2-0.1
	c-2.3,0-2.6,0.3-2.6,2.7c-0.1,3.8,0.1,7.6,0.3,11.4c0.1,2.4,0.3,2.6,2.7,2.7c3.7,0.1,7.4,0,11.2,0c4.1,0,4.1,0,4.1,4.1v101.2
	c0,4.5-0.6,4.5,4.3,4.5c2.4,0,4.9,0.1,7.4,0c1.9-0.1,3.4,0.6,4.7,2c3.3,3.5,6.8,6.8,10.2,10.2C102.4,189.2,103,189.9,104,190z"/>
<g class="st1">
	<path d="M83.4,442.1c0,1.2-0.5,1.9-1.6,1.9h-6.2c-1,0-1.6-0.5-1.6-1.6v-4.8c0-1.1-0.5-1.6-1.6-1.6h-4.7c-1,0-1.6,0.5-1.6,1.6v4.8
		c0,1.1-0.6,1.6-1.6,1.6h-6.2c-1,0-1.6-0.7-1.6-1.9v-23.3c0-6.9,1.1-14.3,13.5-14.3s13.5,7.4,13.5,14.3v23.3H83.4z M74,418.8
		c0-2.6-0.4-4-4-4s-4,1.3-4,4v6c0,1,0.6,1.6,1.6,1.6h4.7c1.1-0.1,1.6-0.6,1.6-1.7v-5.9H74z"/>
	<path d="M97.1,405.5c1.1,0,1.6,0.5,1.6,1.7v21.6c0,4.2,0.3,6.8,4.3,6.8c4.1,0,4.3-2.6,4.3-6.8v-21.6c0-1.1,0.6-1.7,1.6-1.7h6.2
		c1.1,0,1.6,0.5,1.6,1.7v24.5c0,3.6-0.8,13.4-13.8,13.4s-13.8-9.7-13.8-13.4v-24.5c0-1.1,0.6-1.7,1.6-1.7H97.1z"/>
	<path d="M137,405.5c10.3,0,13.7,4.2,13.7,13.2v12c0,9-3.4,13.3-13.7,13.3h-12.3c-1,0-1.6-0.6-1.6-1.6v-35.1c0-1.1,0.6-1.6,1.6-1.7
		L137,405.5L137,405.5z M137.2,434.5c2.6,0,4-0.4,4-3.7c0-0.1,0-12,0-12.1c0-3.4-1.3-3.7-4-3.7h-3c-1,0-1.6,0.5-1.6,1.6v16.3
		c0,1,0.6,1.6,1.6,1.6L137.2,434.5L137.2,434.5z"/>
	<path d="M164.4,405.5c1.1,0,1.7,0.5,1.7,1.7v35.2c0,1-0.5,1.6-1.7,1.6h-6c-1,0-1.6-0.6-1.6-1.6v-35.2c0-1.1,0.6-1.7,1.6-1.7H164.4z
		"/>
	<path d="M199.6,431.6c0,3.6-0.8,13.4-13.8,13.4s-13.8-9.7-13.8-13.4v-13.7c0-3.6,0.8-13.4,13.8-13.4s13.8,9.7,13.8,13.4V431.6z
		 M190.1,420.8c0-4.2-0.3-6.8-4.3-6.8s-4.3,2.6-4.3,6.8v7.9c0,4.2,0.3,6.8,4.3,6.8s4.3-2.6,4.3-6.8V420.8z"/>
	<path d="M242.2,419.1c-1.1,0.2-1.7-0.3-1.8-1.4c-0.4-2.3-2.2-3.7-4.8-3.7c-2.1,0-3.5,1.3-3.2,2.5c0.8,4.3,18.1,4.2,18.1,16.8
		c0,1.6-1.9,11.4-14.9,11.4c-11.5,0-14-7.6-14.3-11.9c-0.1-1,0.4-1.6,1.4-1.8l6.2-1.4c1.1-0.2,1.7,0.3,1.8,1.4
		c0.2,2.6,2.3,4.2,4.8,4.2c2.7,0,4.7-1.6,4.3-3.1c-1-4.7-17.6-3.6-17.6-16.3c-0.1-1.6,0.9-11.4,13.3-11.4c11.3,0,14,7.4,14.3,11.3
		c0.1,1-0.4,1.6-1.4,1.8L242.2,419.1z"/>
	<path d="M282.5,431.6c0,3.6-0.8,13.4-13.8,13.4s-13.8-9.7-13.8-13.4v-13.7c0-3.6,0.8-13.4,13.8-13.4s13.8,9.7,13.8,13.4V431.6z
		 M273.1,420.8c0-4.2-0.3-6.8-4.3-6.8s-4.3,2.6-4.3,6.8v7.9c0,4.2,0.3,6.8,4.3,6.8s4.3-2.6,4.3-6.8V420.8z"/>
	<path d="M296.3,405.5c1.1,0,1.6,0.5,1.6,1.7v25.7c0,1,0.6,1.6,1.7,1.6h12.3c1.1,0,1.7,0.5,1.7,1.7v6.2c0,1.1-0.5,1.6-1.7,1.6h-21.7
		c-1,0-1.6-0.6-1.6-1.6v-35.2c0-1.1,0.6-1.7,1.6-1.7L296.3,405.5L296.3,405.5z"/>
	<path d="M325.4,405.5c1.1,0,1.7,0.5,1.7,1.7v21.6c0,4.2,0.3,6.8,4.3,6.8s4.3-2.6,4.3-6.8v-21.6c0-1.1,0.6-1.7,1.6-1.7h6.2
		c1.1,0,1.7,0.5,1.7,1.7v24.5c0,3.6-0.8,13.4-13.8,13.4s-13.8-9.7-13.8-13.4v-24.5c0-1.1,0.6-1.7,1.6-1.7H325.4z"/>
	<path d="M360.1,416.6c0-1.1-0.6-1.6-1.7-1.6h-7.7c-1,0-1.6-0.6-1.6-1.6v-6.2c0-1.1,0.6-1.7,1.6-1.7h28.2c1.1,0,1.7,0.5,1.7,1.7v6.2
		c0,1-0.5,1.6-1.7,1.6h-7.7c-1,0-1.7,0.5-1.7,1.6v25.7c0,1-0.5,1.6-1.6,1.6h-6.2c-1,0-1.6-0.6-1.6-1.6L360.1,416.6L360.1,416.6z"/>
	<path d="M392.6,405.5c1.1,0,1.7,0.5,1.7,1.7v35.2c0,1-0.5,1.6-1.7,1.6h-6c-1,0-1.6-0.6-1.6-1.6v-35.2c0-1.1,0.6-1.7,1.6-1.7H392.6z
		"/>
	<path d="M427.8,431.6c0,3.6-0.8,13.4-13.8,13.4s-13.8-9.7-13.8-13.4v-13.7c0-3.6,0.8-13.4,13.8-13.4s13.8,9.7,13.8,13.4V431.6z
		 M418.3,420.8c0-4.2-0.3-6.8-4.3-6.8s-4.3,2.6-4.3,6.8v7.9c0,4.2,0.3,6.8,4.3,6.8s4.3-2.6,4.3-6.8V420.8z"/>
	<path d="M443.4,405.5c0.9,0,1.5,0.4,1.9,1.3l7.5,18.3c0.2,0.5,0.7,0.4,0.7-0.2v-17.8c0-1.1,0.6-1.7,1.7-1.7h6.2
		c1.1,0,1.7,0.5,1.7,1.7v35.2c0,1-0.5,1.6-1.7,1.6h-8.1c-0.9,0-1.5-0.4-1.9-1.3l-7.5-18.3c-0.2-0.5-0.7-0.4-0.7,0.2v17.8
		c0,1-0.5,1.6-1.6,1.6h-6.2c-1,0-1.6-0.6-1.6-1.6v-35.2c0-1.1,0.6-1.7,1.6-1.7h8V405.5z"/>
	<path d="M488.7,419.1c-1.1,0.2-1.7-0.3-1.8-1.4c-0.4-2.3-2.2-3.7-4.8-3.7c-2.1,0-3.5,1.3-3.2,2.5c0.8,4.3,18.1,4.2,18.1,16.8
		c0,1.6-1.9,11.4-14.9,11.4c-11.5,0-14-7.6-14.3-11.9c-0.1-1,0.4-1.6,1.4-1.8l6.2-1.4c1.1-0.2,1.7,0.3,1.8,1.4
		c0.2,2.6,2.3,4.2,4.8,4.2c2.7,0,4.7-1.6,4.3-3.1c-1-4.7-17.6-3.6-17.6-16.3c-0.1-1.6,0.9-11.4,13.3-11.4c11.3,0,14,7.4,14.3,11.3
		c0.1,1-0.4,1.6-1.4,1.8L488.7,419.1z"/>
</g>
</svg>
